<svg width="19" height="19" viewBox="0 0 19 19" fill="none" xmlns="http://www.w3.org/2000/svg">
<path d="M16.3983 6.43477L16.203 6.88261C16.0602 7.21046 15.6068 7.21046 15.4639 6.88261L15.2687 6.43477C14.9208 5.63627 14.2941 5.00051 13.5121 4.65271L12.9107 4.38524C12.5855 4.24061 12.5855 3.76741 12.9107 3.62278L13.4784 3.37026C14.2806 3.01351 14.9185 2.35422 15.2604 1.52859L15.4609 1.04465C15.6006 0.707366 16.0664 0.707366 16.2061 1.04465L16.4065 1.52859C16.7485 2.35422 17.3864 3.01351 18.1885 3.37026L18.7563 3.62278C19.0815 3.76741 19.0815 4.24061 18.7563 4.38524L18.1549 4.65271C17.3729 5.00051 16.7462 5.63627 16.3983 6.43477ZM2.36867 2.37502H11.0835V3.95835H3.16683V15.0417H15.8335V8.70835H17.4168V15.8386C17.4168 16.2729 17.0564 16.625 16.6317 16.625H2.36867C1.93504 16.625 1.5835 16.2728 1.5835 15.8386V3.16146C1.5835 2.72712 1.94395 2.37502 2.36867 2.37502ZM8.40917 6.66157L12.2716 9.23655C12.4171 9.33353 12.4565 9.53018 12.3594 9.67569C12.3362 9.71045 12.3064 9.74029 12.2716 9.76349L8.40917 12.3385C8.26366 12.4355 8.06701 12.3962 7.97003 12.2507C7.93535 12.1987 7.91683 12.1375 7.91683 12.075V6.92505C7.91683 6.75016 8.05862 6.60839 8.2335 6.60839C8.29604 6.60839 8.35715 6.62689 8.40917 6.66157Z" fill="black"/>
</svg>
