<svg width="15" height="15" viewBox="0 0 15 15" fill="none" xmlns="http://www.w3.org/2000/svg">
<path d="M10.6532 1.1569C14.1545 2.89735 15.5835 7.15151 13.8431 10.6528C12.1026 14.1541 7.84848 15.5831 4.3472 13.8427C0.845929 12.1022 -0.583144 7.84807 1.15731 4.3468C2.89776 0.845521 7.15192 -0.583553 10.6532 1.1569ZM4.9778 12.5741C7.78136 13.9677 11.1809 12.8257 12.5745 10.0222C13.9681 7.21863 12.8261 3.8191 10.0226 2.42548C7.21904 1.03185 3.81951 2.17384 2.42589 4.97739C1.03226 7.78095 2.17425 11.1805 4.9778 12.5741ZM11.3034 5.47496L11.7545 6.81788L7.0543 8.3968L6.60319 7.05389L11.3034 5.47496Z" fill="white"/>
</svg>
