<svg width="15" height="15" viewBox="0 0 15 15" fill="none" xmlns="http://www.w3.org/2000/svg">
<path d="M7.50008 0.416504C11.4101 0.416504 14.5834 3.58984 14.5834 7.49984C14.5834 11.4098 11.4101 14.5832 7.50008 14.5832C3.59008 14.5832 0.416748 11.4098 0.416748 7.49984C0.416748 3.58984 3.59008 0.416504 7.50008 0.416504ZM7.50008 13.1665C10.6309 13.1665 13.1667 10.6307 13.1667 7.49984C13.1667 4.369 10.6309 1.83317 7.50008 1.83317C4.36925 1.83317 1.83341 4.369 1.83341 7.49984C1.83341 10.6307 4.36925 13.1665 7.50008 13.1665ZM10.0044 3.99376L11.0061 4.9955L7.50008 8.50156L6.49836 7.49984L10.0044 3.99376Z" fill="white"/>
</svg>
