<svg width="19" height="20" viewBox="0 0 19 20" fill="none" xmlns="http://www.w3.org/2000/svg">
<line x1="9.84377" y1="2.40625" x2="9.84376" y2="19.2812" stroke="white" stroke-width="0.5625"/>
<line x1="18.5625" y1="10.5625" x2="1.68752" y2="10.5625" stroke="white" stroke-width="0.5625"/>
<g clip-path="url(#clip0_469_116)">
<path d="M5.22647 5.01533L6.68399 5.26365C6.74724 5.27442 6.78978 5.33444 6.77899 5.39768C6.77499 5.42117 6.76386 5.44287 6.74711 5.45982L4.77439 7.45606C4.72929 7.50169 4.65573 7.50213 4.6101 7.45704C4.59314 7.44028 4.58176 7.41871 4.57748 7.39527L4.31191 5.94079L3.626 6.63488C3.5358 6.72615 3.3887 6.72703 3.29742 6.63683L0.983782 4.35044C0.892512 4.26025 0.891637 4.11314 0.981835 4.02187L3.26822 1.70823C3.35842 1.61696 3.50552 1.61609 3.59679 1.70628L5.91043 3.99267C6.00171 4.08287 6.00258 4.22997 5.91238 4.32124L5.22647 5.01533ZM4.71061 5.53734L4.91437 6.65332L5.94608 5.60931L4.82777 5.41878L4.71061 5.53734ZM3.43543 2.20012L1.47567 4.18324L3.45879 6.143L5.41855 4.15987L3.43543 2.20012Z" fill="white"/>
</g>
<defs>
<clipPath id="clip0_469_116">
<rect width="5.57617" height="5.57617" fill="white" transform="translate(3.91953 0.71875) rotate(44.6605)"/>
</clipPath>
</defs>
</svg>
