<svg width="31" height="30" viewBox="0 0 31 30" fill="none" xmlns="http://www.w3.org/2000/svg">
<line x1="14.5" y1="2.18557e-08" x2="14.5" y2="30" stroke="white"/>
<line x1="30" y1="14.5" x2="4.07973e-08" y2="14.5" stroke="white"/>
<path d="M22.1541 6.74083L19.5653 6.28538C19.453 6.26561 19.3459 6.34066 19.3261 6.45299C19.3188 6.49472 19.3245 6.5377 19.3424 6.5761L21.4521 11.0975C21.5003 11.2009 21.6232 11.2456 21.7266 11.1973C21.765 11.1794 21.7969 11.1501 21.8181 11.1134L23.1321 8.83696L23.8656 10.4091C23.9621 10.6158 24.2079 10.7052 24.4146 10.6087L29.6549 8.16359C29.8616 8.06713 29.951 7.82136 29.8546 7.61463L27.4095 2.37431C27.313 2.16759 27.0672 2.0782 26.8605 2.17465L21.6202 4.61977C21.4134 4.71624 21.3241 4.96201 21.4205 5.16874L22.1541 6.74083ZM22.7057 7.92316L21.6975 9.66983L20.5942 7.30518L22.5804 7.65463L22.7057 7.92316ZM26.8355 3.09792L28.9313 7.58962L24.4396 9.68544L22.3438 5.19374L26.8355 3.09792Z" fill="white"/>
</svg>
