<svg width="30" height="30" viewBox="0 0 30 30" fill="none" xmlns="http://www.w3.org/2000/svg">
<line x1="14.5" y1="2.18557e-08" x2="14.5" y2="18" stroke="white"/>
<line x1="30" y1="14.5" x2="4.07973e-08" y2="14.5" stroke="white"/>
<path d="M15.4609 22.4781L16.9683 20.3248C17.0337 20.2313 17.011 20.1025 16.9175 20.0372C16.8828 20.0129 16.8415 19.9998 16.7991 19.9998L11.8097 19.9998C11.6957 19.9998 11.6032 20.0923 11.6032 20.2063C11.6032 20.2487 11.6162 20.2901 11.6405 20.3248L13.1479 22.4781L11.413 22.4781C11.1849 22.4781 11 22.663 11 22.8912L11 28.6739C11 28.902 11.1849 29.0869 11.413 29.0869L17.1957 29.0869C17.4239 29.0869 17.6088 28.902 17.6088 28.6739L17.6088 22.8912C17.6088 22.663 17.4239 22.4781 17.1957 22.4781L15.4609 22.4781ZM14.1562 22.4781L12.9997 20.8259L15.6091 20.8259L14.4526 22.4781L14.1562 22.4781ZM16.7827 28.2608L11.8261 28.2608L11.8261 23.3042L16.7827 23.3042L16.7827 28.2608Z" fill="white"/>
</svg>
