<svg width="33" height="33" viewBox="0 0 33 33" fill="none" xmlns="http://www.w3.org/2000/svg">
<line x1="14.5" y1="3" x2="14.5" y2="33" stroke="white"/>
<line x1="30" y1="17.5" x2="4.07973e-08" y2="17.5" stroke="white"/>
<g clip-path="url(#clip0_469_98)">
<path d="M22.7277 7.63842L20.1365 8.07988C20.0241 8.09903 19.9484 8.20572 19.9676 8.31814C19.9747 8.35991 19.9945 8.39849 20.0243 8.42863L23.5313 11.9775C23.6115 12.0586 23.7423 12.0594 23.8234 11.9792C23.8536 11.9494 23.8738 11.9111 23.8814 11.8694L24.3535 9.28368L25.5729 10.5176C25.7333 10.6799 25.9948 10.6814 26.1571 10.5211L30.2702 6.4564C30.4325 6.29605 30.434 6.03453 30.2737 5.87227L26.209 1.75913C26.0486 1.59687 25.7871 1.59532 25.6248 1.75567L21.5117 5.82035C21.3494 5.9807 21.3479 6.24222 21.5082 6.40448L22.7277 7.63842ZM23.6447 8.56644L23.2825 10.5504L21.4483 8.69438L23.4364 8.35567L23.6447 8.56644ZM25.9117 2.63359L29.3957 6.15914L25.8702 9.64316L22.3862 6.11761L25.9117 2.63359Z" fill="white"/>
</g>
<defs>
<clipPath id="clip0_469_98">
<rect width="9.91319" height="9.91319" fill="white" transform="matrix(-0.711284 0.702905 0.702905 0.711284 25.0511 0)"/>
</clipPath>
</defs>
</svg>
