<svg width="30" height="30" viewBox="0 0 30 30" fill="none" xmlns="http://www.w3.org/2000/svg">
<line x1="14.5" y1="2.18557e-08" x2="14.5" y2="30" stroke="white"/>
<line x1="30" y1="14.5" x2="4.07973e-08" y2="14.5" stroke="white"/>
<path d="M20.6491 7.69266L18.3773 6.37056C18.2788 6.31318 18.1523 6.34659 18.095 6.44517C18.0737 6.48179 18.0641 6.52409 18.0677 6.56631L18.4846 11.5382C18.4942 11.6519 18.5941 11.7363 18.7077 11.7268C18.7499 11.7232 18.79 11.7068 18.8226 11.6797L20.8424 9.99765L20.9874 11.7264C21.0065 11.9537 21.2062 12.1225 21.4335 12.1035L27.196 11.6202C27.4233 11.6011 27.5922 11.4014 27.5731 11.1741L27.0898 5.4116C27.0708 5.18428 26.871 5.01546 26.6437 5.03452L20.8812 5.51779C20.6539 5.53686 20.4851 5.7366 20.5041 5.96392L20.6491 7.69266ZM20.7582 8.99279L19.2084 10.2834L18.9903 7.6831L20.7334 8.69751L20.7582 8.99279ZM26.3011 5.89225L26.7154 10.8315L21.7761 11.2457L21.3619 6.30648L26.3011 5.89225Z" fill="white"/>
</svg>
