<svg width="34" height="30" viewBox="0 0 34 30" fill="none" xmlns="http://www.w3.org/2000/svg">
<line x1="18.5" y1="2.18557e-08" x2="18.5" y2="30" stroke="white"/>
<line x1="34" y1="14.5" x2="12" y2="14.5" stroke="white"/>
<path d="M6.6088 13.1479L8.76215 11.6405C8.85558 11.5751 8.98437 11.5978 9.04975 11.6913C9.07404 11.726 9.08709 11.7673 9.08709 11.8097L9.08709 16.7991C9.08709 16.9131 8.99461 17.0056 8.88057 17.0056C8.83819 17.0056 8.79685 16.9926 8.76215 16.9683L6.6088 15.4609L6.6088 17.1957C6.6088 17.4239 6.42387 17.6088 6.19575 17.6088L0.41305 17.6088C0.184931 17.6088 5.61593e-07 17.4239 5.41649e-07 17.1957L3.611e-08 11.413C1.61671e-08 11.1849 0.184931 11 0.41305 11L6.19575 11C6.42387 11 6.6088 11.1849 6.6088 11.413L6.6088 13.1479ZM6.6088 14.4526L8.261 15.6091L8.261 12.9997L6.6088 14.1562L6.6088 14.4526ZM0.8261 11.8261L0.8261 16.7827L5.7827 16.7827L5.7827 11.8261L0.8261 11.8261Z" fill="white"/>
</svg>
