<svg width="31" height="30" viewBox="0 0 31 30" fill="none" xmlns="http://www.w3.org/2000/svg">
<line x1="15.5" y1="2.18557e-08" x2="15.5" y2="30" stroke="white"/>
<line x1="31" y1="14.5" x2="1" y2="14.5" stroke="white"/>
<g clip-path="url(#clip0_469_104)">
<path d="M7.94084 19.616L9.35533 17.4005C9.4167 17.3044 9.54441 17.2762 9.64053 17.3376C9.67623 17.3604 9.70408 17.3936 9.72026 17.4328L11.6257 22.044C11.6692 22.1494 11.6191 22.2702 11.5137 22.3138C11.4745 22.3299 11.4313 22.3337 11.39 22.3245L8.82419 21.7537L9.48671 23.3571C9.57383 23.5679 9.47354 23.8094 9.26271 23.8965L3.91831 26.1049C3.70748 26.192 3.46594 26.0918 3.37882 25.8809L1.17044 20.5365C1.08332 20.3257 1.18361 20.0842 1.39444 19.997L6.73884 17.7887C6.94968 17.7015 7.19121 17.8018 7.27832 18.0127L7.94084 19.616ZM8.4391 20.8218L10.4077 21.2597L9.41123 18.8481L8.32593 20.5479L8.4391 20.8218ZM2.09166 20.6028L3.98457 25.1837L8.56548 23.2908L6.67258 18.7099L2.09166 20.6028Z" fill="white"/>
</g>
<defs>
<clipPath id="clip0_469_104">
<rect width="9.91319" height="9.91319" fill="white" transform="translate(0 18.7856) rotate(-22.4511)"/>
</clipPath>
</defs>
</svg>
